<svg xmlns="http://www.w3.org/2000/svg" viewBox="0 0 512 512" role="img" aria-label="Logo">
  <defs>
    <filter id="soft" x="-20%" y="-20%" width="140%" height="140%">
      <feDropShadow dx="0" dy="6" stdDeviation="8" flood-color="#7a5a2b" flood-opacity="0.25" />
    </filter>
  </defs>
  <g fill="#b8954b" filter="url(#soft)">
    <rect x="246" y="16" width="20" height="140" rx="10" ry="10" transform="rotate(0 256 256)" />
    <rect x="246" y="16" width="20" height="140" rx="10" ry="10" transform="rotate(15 256 256)" />
    <rect x="246" y="16" width="20" height="140" rx="10" ry="10" transform="rotate(30 256 256)" />
    <rect x="246" y="16" width="20" height="140" rx="10" ry="10" transform="rotate(45 256 256)" />
    <rect x="246" y="16" width="20" height="140" rx="10" ry="10" transform="rotate(60 256 256)" />
    <rect x="246" y="16" width="20" height="140" rx="10" ry="10" transform="rotate(75 256 256)" />
    <rect x="246" y="16" width="20" height="140" rx="10" ry="10" transform="rotate(90 256 256)" />
    <rect x="246" y="16" width="20" height="140" rx="10" ry="10" transform="rotate(105 256 256)" />
    <rect x="246" y="16" width="20" height="140" rx="10" ry="10" transform="rotate(120 256 256)" />
    <rect x="246" y="16" width="20" height="140" rx="10" ry="10" transform="rotate(135 256 256)" />
    <rect x="246" y="16" width="20" height="140" rx="10" ry="10" transform="rotate(150 256 256)" />
    <rect x="246" y="16" width="20" height="140" rx="10" ry="10" transform="rotate(165 256 256)" />
    <rect x="246" y="16" width="20" height="140" rx="10" ry="10" transform="rotate(180 256 256)" />
    <rect x="246" y="16" width="20" height="140" rx="10" ry="10" transform="rotate(195 256 256)" />
    <rect x="246" y="16" width="20" height="140" rx="10" ry="10" transform="rotate(210 256 256)" />
    <rect x="246" y="16" width="20" height="140" rx="10" ry="10" transform="rotate(225 256 256)" />
    <rect x="246" y="16" width="20" height="140" rx="10" ry="10" transform="rotate(240 256 256)" />
    <rect x="246" y="16" width="20" height="140" rx="10" ry="10" transform="rotate(255 256 256)" />
    <rect x="246" y="16" width="20" height="140" rx="10" ry="10" transform="rotate(270 256 256)" />
    <rect x="246" y="16" width="20" height="140" rx="10" ry="10" transform="rotate(285 256 256)" />
    <rect x="246" y="16" width="20" height="140" rx="10" ry="10" transform="rotate(300 256 256)" />
    <rect x="246" y="16" width="20" height="140" rx="10" ry="10" transform="rotate(315 256 256)" />
    <rect x="246" y="16" width="20" height="140" rx="10" ry="10" transform="rotate(330 256 256)" />
    <rect x="246" y="16" width="20" height="140" rx="10" ry="10" transform="rotate(345 256 256)" />
  </g>
  <circle cx="256" cy="256" r="120" fill="#ffffff" />
</svg>
